# xmcd
#
# Track frame offsets:
# 150
# 14152
# 27082
# 36052
# 47340
# 59935
# 73007
# 82910
# 97082
# 111027
# 122715
# 135340
# 145875
# 158715
# 171322
# 184785
# 198940
# 210542
# 227680
# 245797
#
# Disc length: 3464 seconds
#
#
# Revision: 0
# Processed by: cddbd v1.5.2PL0 Copyright (c) Steve Scherf et al.
# Submitted via: FreeRIP 2.944 
#
DISCID=1b0d8614
DTITLE=TEODORO and SAMPAIO - RAIZES VOL.2°
DYEAR=1900
DGENRE=SERTANEJAS
TTITLE0=A VOZ DO POVO
TTITLE1=PÁSSARO DE AÇO
TTITLE2=A HORA DE AMAR
TTITLE3=O MORDOMO
TTITLE4=CUNHADA
TTITLE5=SÓ MAIS UMAMOR
TTITLE6=DOIS  "FOGÃO"
TTITLE7=FOTO COLORIDA
TTITLE8=ÁGUA NO LEITE
TTITLE9=DOUTORA DO AMOR
TTITLE10=NOSSA BRIGAS
TTITLE11=MULHER E COMIGO MESMO
TTITLE12=AS MÃO DA MULHER
TTITLE13=O JARDINEIRO
TTITLE14=NÃO SOU PAREO PRA VOCÊ
TTITLE15=VIRUS DO AMOR
TTITLE16=MORENA CRIMINOSA
TTITLE17=MAS LEMBRANÇAS DE VOCE
TTITLE18=DELICIAS DO AMOR
TTITLE19=SEDUÇÃO
EXTD=
EXTT0=
EXTT1=
EXTT2=
EXTT3=
EXTT4=
EXTT5=
EXTT6=
EXTT7=
EXTT8=
EXTT9=
EXTT10=
EXTT11=
EXTT12=
EXTT13=
EXTT14=
EXTT15=
EXTT16=
EXTT17=
EXTT18=
EXTT19=
PLAYORDER=
